<svg xmlns="http://www.w3.org/2000/svg" width="700" height="700" viewBox="0 0 700 700"><path d="M 52.962 1.546 C 52.257 2.396, 51.170 2.896, 50.548 2.657 C 49.925 2.418, 48.562 2.847, 47.517 3.611 C 46.472 4.375, 44.990 5, 44.223 5 C 43.456 5, 39.849 6.462, 36.208 8.250 C 27.100 12.721, 13.401 26.219, 9.568 34.500 C 5.101 44.150, 2.420 52.297, 2.881 54.824 C 3.013 55.552, 2.532 56.859, 1.811 57.728 C 0.738 59.021, 0.453 111.689, 0.243 348.190 C 0.019 600.467, 0.172 637.433, 1.453 639.910 C 2.260 641.470, 2.688 642.979, 2.404 643.263 C 1.962 643.705, 3.932 651.183, 5.758 656 C 6.071 656.825, 6.366 657.743, 6.414 658.041 C 6.616 659.305, 11.606 668.563, 12.750 669.796 C 13.438 670.537, 14 671.596, 14 672.151 C 14 673.496, 25.277 684.275, 28.474 685.986 C 29.863 686.730, 31 687.657, 31 688.048 C 31 688.438, 32.462 689.337, 34.250 690.046 C 36.037 690.755, 38.115 691.809, 38.868 692.388 C 40.312 693.499, 50.398 696.489, 58.065 698.077 C 60.891 698.663, 173.672 698.924, 354.065 698.762 C 585.987 698.553, 645.949 698.243, 647.699 697.242 C 648.909 696.550, 651.159 695.854, 652.699 695.695 C 657.997 695.148, 672.293 687.296, 678 681.798 C 684.083 675.938, 688.241 671.229, 689.319 668.976 C 689.708 668.164, 691.370 665.034, 693.013 662.020 C 694.656 659.006, 696 655.770, 696 654.829 C 696 653.888, 696.450 652.840, 697 652.500 C 697.550 652.160, 698 650.821, 698 649.524 C 698 648.228, 698.562 646.979, 699.250 646.750 C 701.089 646.137, 701.089 53.863, 699.250 53.250 C 698.562 53.021, 698 51.740, 698 50.403 C 698 49.066, 697.550 47.191, 697 46.236 C 695.420 43.492, 693.656 38.587, 693.891 37.592 C 694.009 37.092, 693.740 36.417, 693.293 36.092 C 692.292 35.362, 687 27.263, 687 26.460 C 687 25.303, 675.425 14.323, 672.250 12.468 C 670.462 11.423, 669 10.216, 669 9.784 C 669 9.353, 668.100 9, 667 9 C 665.900 9, 665 8.550, 665 8 C 665 7.450, 664.127 7, 663.059 7 C 661.991 7, 660.840 6.550, 660.500 6 C 660.160 5.450, 659.121 4.997, 658.191 4.994 C 657.261 4.990, 655.211 4.315, 653.636 3.494 C 652.060 2.672, 649.923 2, 648.886 2 C 647.849 2, 647 1.550, 647 1 C 647 0.336, 547.541 0, 350.622 0 C 84.517 0, 54.114 0.158, 52.962 1.546 M 58.558 6.067 C 34.834 8.817, 14.465 26.437, 8.489 49.380 C 7.187 54.381, 7 91.982, 7 349.500 C 7 673.015, 6.526 648.416, 13.020 661.665 C 19.910 675.722, 35.594 687.973, 52 692.112 C 60.129 694.163, 640.704 694.191, 649 692.141 C 668.682 687.277, 684.951 672.501, 691.726 653.338 L 694.497 645.500 694.809 588.096 C 695.061 541.609, 694.871 530.530, 693.810 529.838 C 693.089 529.369, 679.582 529.027, 663.793 529.078 C 648.004 529.129, 634.617 528.881, 634.043 528.527 C 632.659 527.671, 632.661 509.327, 634.045 508.472 C 634.620 508.117, 647.811 507.884, 663.358 507.953 C 678.905 508.023, 692.385 507.789, 693.313 507.433 C 694.644 506.922, 695 505.481, 695 500.593 C 695 497.110, 694.475 493.875, 693.800 493.200 C 692.920 492.320, 684.644 492, 662.800 492 L 633 492 633 481.500 L 633 471 662.878 471 C 687.395 471, 692.965 470.747, 693.928 469.587 C 694.633 468.738, 694.980 465.649, 694.800 461.837 L 694.500 455.500 664.265 455.235 L 634.031 454.971 633.470 452.735 C 633.162 451.506, 633.043 446.675, 633.205 442 L 633.500 433.500 664 433 L 694.500 432.500 694.500 243 L 694.500 53.500 691.728 45.662 C 685.332 27.582, 672.628 15.114, 653.500 8.144 C 651.850 7.542, 646.687 6.589, 642.026 6.025 C 631.816 4.790, 69.230 4.831, 58.558 6.067 M 0.493 350 C 0.493 508.675, 0.609 573.588, 0.750 494.250 C 0.891 414.913, 0.891 285.088, 0.750 205.750 C 0.609 126.413, 0.493 191.325, 0.493 350 M 335.500 97.120 C 281.115 100.496, 231.674 119.995, 189.500 154.699 C 157.804 180.782, 135.174 211.365, 116.558 253.278 C 110.334 267.290, 103.089 294.302, 99.868 315.500 C 98.035 327.559, 98.021 371.294, 99.845 383.500 C 102.931 404.145, 110.161 431.268, 116.240 445 C 119.965 453.417, 129.965 473.485, 132.434 477.500 C 133.787 479.700, 135.966 483.332, 137.277 485.571 C 143.447 496.114, 158.589 514.654, 171.968 528.047 C 208.840 564.957, 251.391 587.674, 303 598 C 324.267 602.256, 360.081 603.359, 382.542 600.452 C 430.541 594.239, 475.597 574.681, 512.500 544.041 C 519.635 538.117, 543.260 513.832, 548.986 506.535 C 569.513 480.381, 584.063 452.197, 593.920 419.500 C 599.376 401.402, 603.941 369.740, 603.941 350 C 603.940 330.809, 600.305 303.699, 595.091 284 C 580.296 228.104, 544.672 176.999, 497 143.283 C 458.423 115.999, 413.098 99.775, 369.075 97.492 C 363.259 97.190, 356.250 96.802, 353.500 96.628 C 350.750 96.455, 342.650 96.676, 335.500 97.120 M 331.500 102.578 C 286.710 106.955, 250.675 119.301, 214.867 142.538 C 160.451 177.850, 120.884 236.012, 108.087 299.500 C 99.481 342.199, 102.099 387.054, 115.574 427.762 C 122.471 448.599, 138.185 479.570, 148.673 492.999 C 172.685 523.744, 188.088 538.604, 213.629 555.666 C 271.738 594.483, 343.058 606.575, 412.500 589.385 C 443.629 581.679, 478.010 564.513, 504.942 543.230 C 515.893 534.576, 534.923 515.755, 543.099 505.491 C 549.935 496.911, 560.702 481.396, 564.955 474 C 568.754 467.393, 579.161 445.902, 580.935 441 C 581.632 439.075, 582.577 436.600, 583.035 435.500 C 586.231 427.830, 591.789 407.755, 593.833 396.500 C 594.432 393.200, 595.501 387.350, 596.209 383.500 C 597.982 373.862, 597.959 326.272, 596.176 315.500 C 591.067 284.621, 584.366 263.304, 572.066 238.799 C 542.600 180.092, 491.975 135.964, 430.134 115.083 C 404.310 106.363, 384.977 103.076, 356.500 102.564 C 344.950 102.357, 333.700 102.363, 331.500 102.578 " stroke="none" fill="black" fill-rule="evenodd" xmlns="http://www.w3.org/2000/svg"/><path stroke="black" stroke-width="1" d=""/></svg>